<?xml version="1.0" encoding="UTF-8" standalone="no" ?>
<!DOCTYPE svg PUBLIC "-//W3C//DTD SVG 1.1//EN" "http://www.w3.org/Graphics/SVG/1.1/DTD/svg11.dtd">
<svg xmlns="http://www.w3.org/2000/svg" xmlns:xlink="http://www.w3.org/1999/xlink" version="1.1" width="1280" height="1024" viewBox="0 0 1280 1024" xml:space="preserve">
<desc>Created with Fabric.js 5.3.0</desc>
<defs>
</defs>
<g transform="matrix(1 0 0 1 640 512)" id="background-logo"  >
<rect style="stroke: none; stroke-width: 0; stroke-dasharray: none; stroke-linecap: butt; stroke-dashoffset: 0; stroke-linejoin: miter; stroke-miterlimit: 4; fill: rgb(12,19,29); fill-rule: nonzero; opacity: 1;"  paint-order="stroke"  x="-640" y="-512" rx="0" ry="0" width="1280" height="1024" />
</g>
<g transform="matrix(1.9211538461538462 0 0 1.9211538461538462 640 395.6864080388972)" id="logo-logo"  >
<g style=""  paint-order="stroke"   >
		<g transform="matrix(0.917930923744532 0 0 0.9179309237445321 0 0)"  >
<g style=""  paint-order="stroke"   >
		<g transform="matrix(1 0 0 1 0 0)"  >
<linearGradient id="SVGID_2_460503" gradientUnits="userSpaceOnUse" gradientTransform="matrix(1 0 0 1 -100 -100)"  x1="0" y1="0" x2="0" y2="200">
<stop offset="0%" style="stop-color:rgb(23,234,217);stop-opacity: 1"/>
<stop offset="100%" style="stop-color:rgb(96,120,234);stop-opacity: 1"/>
</linearGradient>
<polygon style="stroke: none; stroke-width: 1; stroke-dasharray: none; stroke-linecap: butt; stroke-dashoffset: 0; stroke-linejoin: miter; stroke-miterlimit: 4; fill: url(#SVGID_2_460503); fill-rule: nonzero; opacity: 1;"  paint-order="stroke"  points="100,100 0,100 0,95.12 95.12,95.12 95.12,-95.12 -95.12,-95.12 -95.12,0 -100,0 -100,-100 100,-100 100,100 " />
</g>
</g>
</g>
</g>
</g>
<g transform="matrix(1.9211538461538462 0 0 1.9211538461538462 642.40384375 667.1128161574082)" id="text-logo"  >
<g style=""  paint-order="stroke"   >
		<g transform="matrix(1 0 0 1 0 0)" id="text-logo-path-0"  >
<path style="stroke: rgb(255,255,255); stroke-width: 0; stroke-dasharray: none; stroke-linecap: butt; stroke-dashoffset: 0; stroke-linejoin: miter; stroke-miterlimit: 4; fill: rgb(49,192,223); fill-rule: nonzero; opacity: 1;"  paint-order="stroke"  transform=" translate(-107.80000000000001, 19.25)" d="M 4.67 -30.25 L 4.67 -8.25 C 4.67 -0.88 8.86 0.55 14.03 0.55 C 19.25 0.55 23.38 -0.99 23.38 -8.25 L 23.38 -30.25 C 23.38 -37.62 19.25 -39.05 14.03 -39.05 C 8.86 -39.05 4.67 -37.62 4.67 -30.25 Z M 8.53 -9.35 L 8.53 -29.15 C 8.53 -34.16 10.67 -35.2 14.03 -35.2 C 17.38 -35.2 19.52 -34.16 19.52 -29.15 L 19.52 -9.35 C 19.52 -4.34 17.38 -3.3 14.03 -3.3 C 10.67 -3.3 8.53 -4.34 8.53 -9.35 Z M 52.69 -38.5 L 52.69 0 L 56.54 0 L 56.54 -29.15 L 68.53 0 L 72.38 0 L 72.38 -38.5 L 68.53 -38.5 L 68.53 -9.35 L 56.54 -38.5 Z M 102.57 -38.5 L 102.57 0 L 106.42 0 L 106.42 -16.28 L 107.58 -18.09 L 116.88 0 L 121 0 L 109.83 -21.73 L 120.23 -38.5 L 116.1 -38.5 L 106.42 -22.93 L 106.42 -38.5 Z M 143.44 0 L 147.29 0 L 149.49 -10.45 L 159.34 -10.45 L 161.54 0 L 165.39 0 L 157.3 -38.5 L 151.53 -38.5 Z M 150.21 -13.75 L 154.44 -33.94 L 158.68 -13.75 Z M 192.23 0 L 196.08 0 L 196.08 -14.3 L 199.93 -14.3 L 206.8 0 L 210.93 0 L 203.89 -14.74 C 207.13 -15.56 209.28 -17.82 209.28 -23.1 L 209.28 -29.7 C 209.28 -37.07 205.15 -38.5 199.93 -38.5 L 192.23 -38.5 Z M 196.08 -17.6 L 196.08 -35.2 L 199.93 -35.2 C 203.28 -35.2 205.43 -34.16 205.43 -29.15 L 205.43 -23.65 C 205.43 -18.64 203.28 -17.6 199.93 -17.6 Z" stroke-linecap="round" />
</g>
</g>
</g>
<g transform="matrix(1.9211538461538462 0 0 1.9211538461538462 640 399.831735388657)" id="tagline-3a78d944-c0db-44d4-8ad5-60158c925687-logo"  >
<g style=""  paint-order="stroke"   >
		<g transform="matrix(1 0 0 1 0 0)" id="tagline-3a78d944-c0db-44d4-8ad5-60158c925687-logo-path-0"  >
<linearGradient id="SVGID_460504" gradientUnits="userSpaceOnUse" gradientTransform="matrix(1 0 0 1 6.460000000000001 -53.96)"  x1="-6.4599999999999795" y1="-12.85463999999999" x2="-6.4599999999999795" y2="73.14536000000001">
<stop offset="0%" style="stop-color:rgb(23,234,217);stop-opacity: 1"/>
<stop offset="100%" style="stop-color:rgb(96,120,234);stop-opacity: 1"/>
</linearGradient>
<path style="stroke: rgb(255,255,255); stroke-width: 0; stroke-dasharray: none; stroke-linecap: butt; stroke-dashoffset: 0; stroke-linejoin: miter; stroke-miterlimit: 4; fill: url(#SVGID_460504); fill-rule: nonzero; opacity: 1;"  paint-order="stroke"  transform=" translate(-19.38, 26.6)" d="M 6.46 -41.8 L 6.46 -11.4 C 6.46 -1.22 12.24 0.76 19.38 0.76 C 26.6 0.76 32.3 -1.37 32.3 -11.4 L 32.3 -41.8 C 32.3 -51.98 26.6 -53.96 19.38 -53.96 C 12.24 -53.96 6.46 -51.98 6.46 -41.8 Z M 11.78 -12.92 L 11.78 -40.28 C 11.78 -47.2 14.74 -48.64 19.38 -48.64 C 24.02 -48.64 26.98 -47.2 26.98 -40.28 L 26.98 -12.92 C 26.98 -6 24.02 -4.56 19.38 -4.56 C 14.74 -4.56 11.78 -6 11.78 -12.92 Z" stroke-linecap="round" />
</g>
</g>
</g>
<g transform="matrix(1.9211538461538462 0 0 1.9211538461538462 639.680608173077 764.260186926639)" id="tagline-ee21041c-fd7a-4646-a088-df0a2334375e-logo"  >
<g style=""  paint-order="stroke"   >
		<g transform="matrix(1 0 0 1 0 0)" id="tagline-ee21041c-fd7a-4646-a088-df0a2334375e-logo-path-0"  >
<path style="stroke: none; stroke-width: 0; stroke-dasharray: none; stroke-linecap: butt; stroke-dashoffset: 0; stroke-linejoin: miter; stroke-miterlimit: 4; fill: rgb(63,171,226); fill-rule: nonzero; opacity: 1;"  paint-order="stroke"  transform=" translate(-172.13, 12.25)" d="M 12.6 -24.5 L 1.05 -24.5 L 1.05 -22.4 L 5.6 -22.4 L 5.6 0 L 8.05 0 L 8.05 -22.4 L 12.6 -22.4 Z M 37.7 -24.5 L 37.7 0 L 48.2 0 L 48.2 -2.1 L 40.15 -2.1 L 40.15 -11.2 L 46.1 -11.2 L 46.1 -13.3 L 40.15 -13.3 L 40.15 -22.4 L 47.85 -22.4 L 47.85 -24.5 Z M 82.92 -18.55 L 82.92 -15.05 L 85.37 -15.05 L 85.37 -19.25 C 85.37 -23.94 82.74 -24.85 79.42 -24.85 C 76.13 -24.85 73.47 -23.94 73.47 -19.25 L 73.47 -5.25 C 73.47 -0.56 76.13 0.35 79.42 0.35 C 82.74 0.35 85.37 -0.63 85.37 -5.25 L 85.37 -6.72 L 82.92 -6.72 L 82.92 -5.95 C 82.92 -2.77 81.55 -2.1 79.42 -2.1 C 77.28 -2.1 75.92 -2.77 75.92 -5.95 L 75.92 -18.55 C 75.92 -21.74 77.28 -22.4 79.42 -22.4 C 81.55 -22.4 82.92 -21.74 82.92 -18.55 Z M 112.04 -24.5 L 112.04 0 L 114.49 0 L 114.49 -11.55 L 121.49 -11.55 L 121.49 0 L 123.94 0 L 123.94 -24.5 L 121.49 -24.5 L 121.49 -13.65 L 114.49 -13.65 L 114.49 -24.5 Z M 166.81 -24.5 L 163.31 -24.5 L 159.15 -9.52 L 154.98 -24.5 L 151.48 -24.5 L 151.48 0 L 153.93 0 L 153.93 -19.46 L 157.89 -5.25 L 160.41 -5.25 L 164.36 -19.46 L 164.36 0 L 166.81 0 Z M 192.26 0 L 194.71 0 L 196.11 -6.65 L 202.37 -6.65 L 203.77 0 L 206.22 0 L 201.08 -24.5 L 197.4 -24.5 Z M 196.56 -8.75 L 199.26 -21.6 L 201.95 -8.75 Z M 238.66 -24.5 L 227.12 -24.5 L 227.12 -22.4 L 231.66 -22.4 L 231.66 0 L 234.12 0 L 234.12 -22.4 L 238.66 -22.4 Z M 263.76 0 L 266.21 0 L 266.21 -9.1 L 268.66 -9.1 L 273.03 0 L 275.66 0 L 271.18 -9.38 C 273.25 -9.91 274.61 -11.34 274.61 -14.7 L 274.61 -18.9 C 274.61 -23.59 271.99 -24.5 268.66 -24.5 L 263.76 -24.5 Z M 266.21 -11.2 L 266.21 -22.4 L 268.66 -22.4 C 270.8 -22.4 272.16 -21.74 272.16 -18.55 L 272.16 -15.05 C 272.16 -11.87 270.8 -11.2 268.66 -11.2 Z M 305.66 -24.5 L 300.06 -24.5 L 300.06 -22.4 L 301.63 -22.4 L 301.63 -2.1 L 300.06 -2.1 L 300.06 0 L 305.66 0 L 305.66 -2.1 L 304.08 -2.1 L 304.08 -22.4 L 305.66 -22.4 Z M 330.05 0 L 332.61 0 L 336.63 -9.52 L 340.66 0 L 343.21 0 L 338.03 -12.25 L 343.21 -24.5 L 340.66 -24.5 L 336.74 -15.23 L 332.82 -24.5 L 330.26 -24.5 L 335.34 -12.5 Z" stroke-linecap="round" />
</g>
</g>
</g>
</svg>